<svg id="레이어_1" data-name="레이어 1" xmlns="http://www.w3.org/2000/svg" viewBox="0 0 162.95 162.95"><defs><style>.cls-1{fill:#1aad7c;}.cls-2{fill:none;stroke:#f25625;stroke-miterlimit:10;stroke-width:8.89px;}</style></defs><title>defaultProfileImg</title><path class="cls-1" d="M243.12,1157.28a4.88,4.88,0,0,0,1.58-6.16l-.42-.87a4.89,4.89,0,0,0-7.24-1.86c-6.55,4.61-18.12,15-25.39,34-7.11-18.6-18.32-28.91-24.93-33.68a5.39,5.39,0,0,0-6.27,8.76c.62.45,1.31,1,2,1.55a80.44,80.44,0,0,0-.67,54.17,5.4,5.4,0,0,0,10.21-3.55,70.48,70.48,0,0,1-1-42.07c5.24,6.5,10.64,15.9,13.75,29.05a7.1,7.1,0,0,0,6.91,5.46h0a7.1,7.1,0,0,0,6.9-5.46c3.11-13.14,8.51-22.55,13.75-29a71.09,71.09,0,0,1-1.06,42.07,5.4,5.4,0,0,0,2.7,6.58l-4.42-2.19,4.42,2.19h0l.4.19-.39-.19a5.4,5.4,0,0,0,7.5-3,80.44,80.44,0,0,0-.67-54.17C241.64,1158.36,242.42,1157.77,243.12,1157.28Z" transform="translate(-130.17 -1104.91)"/><path class="cls-1" d="M220,1227.15a2.32,2.32,0,0,0-2.17,1,8.13,8.13,0,0,1-4.21,3.08v-4.48a4.47,4.47,0,1,0-4.72,0v4.48a8.07,8.07,0,0,1-4.24-3.13,2.37,2.37,0,0,0-3.9,2.69,12.73,12.73,0,0,0,20.95.07A2.37,2.37,0,0,0,220,1227.15Z" transform="translate(-130.17 -1104.91)"/><circle class="cls-2" cx="81.48" cy="81.48" r="77.03"/></svg>