<svg width="24" height="24" viewBox="0 0 24 24" fill="none" xmlns="http://www.w3.org/2000/svg">
<g clip-path="url(#clip0_745:14108)">
<path d="M-5.72205e-06 12C-5.72205e-06 9.62663 0.703781 7.30655 2.02236 5.33316C3.34093 3.35977 5.21508 1.8217 7.40779 0.913451C9.60051 0.00519949 12.0133 -0.232441 14.3411 0.230582C16.6688 0.693605 18.807 1.83649 20.4853 3.51472C22.1635 5.19295 23.3064 7.33115 23.7694 9.65892C24.2324 11.9867 23.9948 14.3995 23.0865 16.5922C22.1783 18.7849 20.6402 20.6591 18.6668 21.9776C16.6934 23.2962 14.3734 24 12 24C8.8174 24 5.76515 22.7357 3.51471 20.4853C1.26428 18.2349 -5.72205e-06 15.1826 -5.72205e-06 12Z" fill="#E0E0E0"/>
<path d="M14 8L9 12L14 16" stroke="white" stroke-width="2" stroke-linecap="round" stroke-linejoin="round"/>
</g>
<defs>
<clipPath id="clip0_745:14108">
<rect width="24" height="24" fill="white" transform="matrix(-1 0 0 1 24 0)"/>
</clipPath>
</defs>
</svg>
