<svg width="24" height="24" viewBox="0 0 24 24" fill="none" xmlns="http://www.w3.org/2000/svg">
<path d="M13.5 19H10.5C10.1022 19 9.72064 19.158 9.43934 19.4393C9.15804 19.7206 9 20.1022 9 20.5C9 20.8978 9.15804 21.2794 9.43934 21.5607C9.72064 21.842 10.1022 22 10.5 22H13.5C13.8978 22 14.2794 21.842 14.5607 21.5607C14.842 21.2794 15 20.8978 15 20.5C15 20.1022 14.842 19.7206 14.5607 19.4393C14.2794 19.158 13.8978 19 13.5 19V19Z" fill="#9E9EA7"/>
<path d="M21.0909 16.2105C20.6087 16.2105 20.1462 16.022 19.8053 15.6864C19.4643 15.3508 19.2727 14.8957 19.2727 14.4211V8.15789C19.2727 6.2595 18.5065 4.43886 17.1426 3.0965C15.7787 1.75413 13.9288 1 12 1C10.0712 1 8.22131 1.75413 6.85741 3.0965C5.4935 4.43886 4.72727 6.2595 4.72727 8.15789V14.4211C4.72727 14.8957 4.53571 15.3508 4.19474 15.6864C3.85376 16.022 3.3913 16.2105 2.90909 16.2105C2.66799 16.2105 2.43675 16.3048 2.26627 16.4726C2.09578 16.6404 2 16.868 2 17.1053C2 17.3426 2.09578 17.5701 2.26627 17.7379C2.43675 17.9057 2.66799 18 2.90909 18H21.0909C21.332 18 21.5632 17.9057 21.7337 17.7379C21.9042 17.5701 22 17.3426 22 17.1053C22 16.868 21.9042 16.6404 21.7337 16.4726C21.5632 16.3048 21.332 16.2105 21.0909 16.2105Z" fill="#9E9EA7"/>
</svg>
