<svg width="22" height="22" viewBox="0 0 22 22" fill="none" xmlns="http://www.w3.org/2000/svg">
<path d="M19.25 5.10721H16.6964L14.6929 2.43578C14.5831 2.28941 14.4407 2.17061 14.2771 2.08878C14.1134 2.00696 13.933 1.96436 13.75 1.96436H8.25C8.06703 1.96436 7.88658 2.00696 7.72293 2.08878C7.55928 2.17061 7.41692 2.28941 7.30714 2.43578L5.30357 5.10721H2.75C2.02091 5.10804 1.32192 5.39804 0.806375 5.91359C0.29083 6.42913 0.000831821 7.12812 0 7.85721L0 17.2858C0.000831821 18.0149 0.29083 18.7139 0.806375 19.2294C1.32192 19.745 2.02091 20.035 2.75 20.0358H19.25C19.9791 20.035 20.6781 19.745 21.1936 19.2294C21.7092 18.7139 21.9992 18.0149 22 17.2858V7.85721C21.9992 7.12812 21.7092 6.42913 21.1936 5.91359C20.6781 5.39804 19.9791 5.10804 19.25 5.10721V5.10721ZM11 17.2858C9.9899 17.2858 9.00249 16.9863 8.16262 16.4251C7.32276 15.8639 6.66816 15.0663 6.28162 14.1331C5.89507 13.1999 5.79393 12.173 5.99099 11.1823C6.18805 10.1916 6.67446 9.28159 7.3887 8.56735C8.10295 7.8531 9.01296 7.36669 10.0036 7.16963C10.9943 6.97257 12.0212 7.07371 12.9544 7.46026C13.8876 7.8468 14.6853 8.5014 15.2464 9.34126C15.8076 10.1811 16.1071 11.1685 16.1071 12.1786C16.1055 13.5326 15.5669 14.8307 14.6095 15.7881C13.652 16.7455 12.354 17.2841 11 17.2858V17.2858Z" fill="white"/>
<path d="M8.25 12.1787C8.25 12.9081 8.53973 13.6075 9.05546 14.1233C9.57118 14.639 10.2707 14.9287 11 14.9287C11.7293 14.9287 12.4288 14.639 12.9445 14.1233C13.4603 13.6075 13.75 12.9081 13.75 12.1787C13.75 11.4494 13.4603 10.7499 12.9445 10.2342C12.4288 9.71844 11.7293 9.42871 11 9.42871C10.2707 9.42871 9.57118 9.71844 9.05546 10.2342C8.53973 10.7499 8.25 11.4494 8.25 12.1787V12.1787Z" fill="white"/>
</svg>
