<svg width="16" height="14" viewBox="0 0 16 14" fill={props.color} xmlns="http://www.w3.org/2000/svg">
<path d="M15.8172 3.46839C15.6087 2.69136 15.1987 1.98313 14.6288 1.41524C14.0589 0.847349 13.3493 0.43992 12.5715 0.234106C11.7768 0.0886617 10.9581 0.147658 10.1924 0.40555C9.42672 0.663443 8.73917 1.11177 8.19436 1.70839C8.14153 1.75739 8.07213 1.78462 8.00008 1.78462C7.92802 1.78462 7.85863 1.75739 7.80579 1.70839C7.26099 1.11177 6.57344 0.663443 5.80776 0.40555C5.04207 0.147658 4.2234 0.0886617 3.42865 0.234106C2.65088 0.43992 1.94121 0.847349 1.37132 1.41524C0.801421 1.98313 0.391491 2.69136 0.182935 3.46839C-0.0433085 4.24014 -0.0565306 5.05872 0.144671 5.83736C0.345872 6.61601 0.753999 7.32572 1.32579 7.89125L7.63436 13.7084C7.74123 13.804 7.87957 13.8568 8.02294 13.8568C8.16631 13.8568 8.30465 13.804 8.41151 13.7084L14.7315 7.86839C15.2925 7.3011 15.6896 6.59262 15.8807 5.81802C16.0719 5.04342 16.0499 4.23153 15.8172 3.46839Z" />
</svg>
