<svg width="23" height="25" viewBox="0 0 23 25" fill="none" xmlns="http://www.w3.org/2000/svg">
<path d="M21.2143 14.2857C21.1432 14.2078 21.1048 14.1055 21.1071 14V11.0536C21.0984 10.9926 21.1035 10.9305 21.122 10.8717C21.1406 10.813 21.1721 10.7592 21.2143 10.7143L22.5535 9.03573C22.7959 8.73419 22.9411 8.36617 22.9698 7.98035C22.9985 7.59453 22.9094 7.20909 22.7143 6.87501L21.9285 5.51787C21.7342 5.18518 21.4455 4.91766 21.099 4.74917C20.7525 4.58069 20.3638 4.51884 19.9821 4.57144L17.8571 4.89287C17.7653 4.92873 17.6633 4.92873 17.5714 4.89287L15.0714 3.44644C14.9797 3.39567 14.9099 3.31309 14.875 3.2143L14.0714 1.2143C13.9309 0.855417 13.6852 0.547403 13.3665 0.330694C13.0478 0.113985 12.6711 -0.00128728 12.2857 1.08445e-05H10.7143C10.3289 -0.00128728 9.9521 0.113985 9.63341 0.330694C9.31472 0.547403 9.06901 0.855417 8.92854 1.2143L8.14283 3.2143C8.10357 3.31614 8.02693 3.39917 7.92854 3.44644L5.42854 4.89287C5.33668 4.92873 5.23469 4.92873 5.14283 4.89287L3.01783 4.62501C2.63615 4.57241 2.24744 4.63426 1.90094 4.80275C1.55444 4.97123 1.26574 5.23875 1.0714 5.57144L0.285684 6.92858C0.0905707 7.26266 0.0014699 7.6481 0.0301671 8.03392C0.0588643 8.41974 0.204007 8.78776 0.446398 9.0893L1.78568 10.7143C1.85676 10.7922 1.89513 10.8945 1.89283 11V13.9464C1.90155 14.0074 1.89645 14.0696 1.8779 14.1283C1.85936 14.187 1.82784 14.2408 1.78568 14.2857L0.446398 15.9643C0.204007 16.2658 0.0588643 16.6339 0.0301671 17.0197C0.0014699 17.4055 0.0905707 17.7909 0.285684 18.125L1.0714 19.4822C1.26574 19.8148 1.55444 20.0824 1.90094 20.2508C2.24744 20.4193 2.63615 20.4812 3.01783 20.4286L5.14283 20.1072C5.23469 20.0713 5.33668 20.0713 5.42854 20.1072L7.92854 21.5536C8.02019 21.6044 8.09007 21.6869 8.12497 21.7857L8.91068 23.7857C9.05115 24.1446 9.29686 24.4526 9.61555 24.6693C9.93424 24.886 10.311 25.0013 10.6964 25H12.2678C12.6532 25.0013 13.03 24.886 13.3487 24.6693C13.6674 24.4526 13.9131 24.1446 14.0535 23.7857L14.8393 21.7857C14.8608 21.7337 14.8924 21.6864 14.9322 21.6465C14.972 21.6067 15.0193 21.5751 15.0714 21.5536L17.5893 20.1072C17.6811 20.0713 17.7831 20.0713 17.875 20.1072L20 20.4286C20.3817 20.4812 20.7704 20.4193 21.1169 20.2508C21.4634 20.0824 21.7521 19.8148 21.9464 19.4822L22.7321 18.125C22.9272 17.7909 23.0163 17.4055 22.9876 17.0197C22.9589 16.6339 22.8138 16.2658 22.5714 15.9643L21.2143 14.2857ZM11.5 16.5179C10.7053 16.5179 9.9285 16.2822 9.26777 15.8407C8.60703 15.3992 8.09206 14.7717 7.78795 14.0376C7.48385 13.3034 7.40428 12.4956 7.55931 11.7162C7.71434 10.9368 8.09701 10.2209 8.65892 9.65896C9.22082 9.09705 9.93674 8.71439 10.7161 8.55936C11.4955 8.40433 12.3034 8.48389 13.0375 8.788C13.7717 9.0921 14.3992 9.60708 14.8407 10.2678C15.2822 10.9285 15.5178 11.7054 15.5178 12.5C15.5178 13.5656 15.0945 14.5876 14.341 15.3411C13.5875 16.0946 12.5656 16.5179 11.5 16.5179Z" fill="#BCBCC1"/>
</svg>
