<svg width="117" height="30" viewBox="0 0 117 30" fill="none" xmlns="http://www.w3.org/2000/svg">
<g clip-path="url(#clip0_714:7248)">
<path d="M64.2272 3.30906C64.5532 3.08311 64.787 2.74865 64.8861 2.36627C64.9853 1.98388 64.9432 1.57888 64.7676 1.22464L64.6207 0.930214C64.5149 0.716084 64.3637 0.527241 64.1775 0.376667C63.9912 0.226093 63.7743 0.11736 63.5417 0.0579419C63.3092 -0.00147636 63.0664 -0.0101708 62.8301 0.0324576C62.5938 0.0750859 62.3696 0.168028 62.1729 0.304889C59.9481 1.8682 56.0102 5.3596 53.5362 11.7952C51.1199 5.50812 47.3079 2.02714 45.0568 0.416925C44.6611 0.17742 44.1888 0.0953806 43.7346 0.187264C43.2805 0.279147 42.8781 0.538157 42.6082 0.912343C42.3384 1.28653 42.2209 1.74822 42.2795 2.20481C42.338 2.6614 42.5682 3.07912 42.9239 3.3742C43.1364 3.52532 43.3699 3.70249 43.6191 3.8953C40.5916 11.8526 42.2549 18.924 43.3935 22.1913C43.5788 22.6126 43.9175 22.949 44.3417 23.1329C44.766 23.3169 45.2446 23.3349 45.6817 23.1834C46.1188 23.0319 46.4821 22.722 46.699 22.3158C46.9159 21.9096 46.9703 21.4371 46.8514 20.9927C45.2789 16.4023 45.1553 11.4444 46.4972 6.78222C48.2812 8.97607 50.1177 12.1522 51.175 16.592C51.3002 17.1171 51.6001 17.5849 52.0262 17.9196C52.4523 18.2544 52.9797 18.4366 53.5231 18.4367V18.4367C54.0664 18.4366 54.5938 18.2544 55.0199 17.9196C55.446 17.5849 55.7459 17.1171 55.8711 16.592C56.9206 12.1626 58.757 8.97607 60.5463 6.78222C62.3828 12.9964 61.05 18.468 60.1869 20.9954C60.0438 21.4134 60.0583 21.8688 60.2276 22.277C60.397 22.6852 60.7097 23.0186 61.1078 23.2153L59.6045 22.4779L61.1078 23.2153L61.2416 23.2804L61.1078 23.2153C61.3417 23.33 61.5975 23.394 61.8583 23.4028C62.1191 23.4117 62.3787 23.3653 62.62 23.2667C62.8613 23.1681 63.0787 23.0195 63.2576 22.8309C63.4366 22.6424 63.573 22.4181 63.6578 22.173C64.7965 18.9057 66.4598 11.8343 63.4322 3.87706C63.7261 3.67122 63.991 3.47581 64.2272 3.30906Z" fill="#00B881"/>
<path d="M56.3723 26.9106C56.2304 26.8938 56.0865 26.9158 55.9562 26.9741C55.8258 27.0324 55.7139 27.1248 55.6325 27.2415C55.2862 27.7375 54.7829 28.1043 54.2027 28.2837V26.7725C54.4837 26.5992 54.7002 26.3397 54.8193 26.0332C54.9385 25.7268 54.9539 25.3901 54.8632 25.0742C54.7724 24.7583 54.5805 24.4804 54.3165 24.2825C54.0524 24.0846 53.7306 23.9775 53.3999 23.9775C53.0691 23.9775 52.7473 24.0846 52.4833 24.2825C52.2192 24.4804 52.0273 24.7583 51.9366 25.0742C51.8458 25.3901 51.8612 25.7268 51.9804 26.0332C52.0996 26.3397 52.3161 26.5992 52.5971 26.7725V28.2889C52.0102 28.1085 51.5017 27.7367 51.1541 27.2337C51.0731 27.1156 50.961 27.0219 50.8301 26.9626C50.6993 26.9034 50.5545 26.8809 50.4116 26.8976C50.2733 26.9118 50.1409 26.9613 50.0276 27.0414C49.9142 27.1215 49.8237 27.2293 49.7648 27.3545C49.7058 27.4796 49.6806 27.6178 49.6914 27.7555C49.7022 27.8933 49.7488 28.0259 49.8266 28.1404C50.2228 28.7146 50.7534 29.1847 51.3729 29.5102C51.9924 29.8358 52.6823 30.0071 53.3832 30.0094C54.0841 30.0117 54.775 29.845 55.3967 29.5235C56.0184 29.202 56.5521 28.7354 56.9522 28.1639C57.0324 28.0495 57.0812 27.9164 57.0936 27.7776C57.1061 27.6388 57.0819 27.4991 57.0233 27.3725C56.9647 27.2459 56.8738 27.1366 56.7596 27.0556C56.6455 26.9746 56.512 26.9246 56.3723 26.9106V26.9106Z" fill="#00B881"/>
<path d="M13.2882 0.148497C13.0131 0.146432 12.7403 0.198504 12.4856 0.301709C12.2309 0.404913 11.9993 0.557205 11.8041 0.749791C11.609 0.942378 11.4542 1.17145 11.3487 1.42377C11.2432 1.67609 11.189 1.94667 11.1894 2.21989V14.8202C11.1894 17.3762 10.0954 18.5148 7.64235 18.5148C7.5022 18.514 7.36236 18.5279 7.2252 18.5565C7.088 18.5282 6.94819 18.5142 6.80806 18.5148C5.75863 18.5148 4.70921 17.9312 3.60207 16.7301C3.42668 16.494 3.20309 16.2974 2.94592 16.1531C2.68876 16.0087 2.40382 15.9199 2.10972 15.8925C1.81563 15.865 1.51902 15.8995 1.23928 15.9937C0.959536 16.0879 0.702968 16.2397 0.486352 16.4392C0.269735 16.6386 0.0979486 16.8812 -0.0177745 17.1511C-0.133497 17.4211 -0.190551 17.7122 -0.185203 18.0055C-0.179855 18.2988 -0.112226 18.5877 0.01326 18.8533C0.138746 19.1188 0.319264 19.3551 0.54301 19.5466C2.4687 21.6102 4.57804 22.6576 6.80806 22.6576C6.94812 22.6569 7.0878 22.6429 7.2252 22.6159C7.36256 22.6432 7.50227 22.6572 7.64235 22.6576C12.4041 22.6576 15.3608 19.6534 15.3608 14.8202V2.20947C15.3588 1.66395 15.1398 1.14132 14.7517 0.75533C14.3635 0.369342 13.8375 0.151241 13.2882 0.148497V0.148497Z" fill="#F25625"/>
<path d="M30.0867 1.45208C30.0998 1.47553 30.1103 1.50159 30.1208 1.52504C29.9785 1.20487 29.7552 0.926652 29.4728 0.717322L29.4072 0.670424C29.3757 0.646975 29.3416 0.626131 29.3075 0.605286C29.2668 0.578876 29.2248 0.554527 29.1816 0.532332H29.1606C29.1038 0.501722 29.0451 0.474744 28.9848 0.451561H28.9612C28.842 0.407076 28.7191 0.373074 28.5939 0.349946H28.5519L28.3867 0.329102H28.1427C27.6128 0.345678 27.1099 0.565069 26.7391 0.941397L26.7155 0.967454C26.6761 1.00914 26.6368 1.05344 26.6 1.09773L26.5817 1.12118C26.5502 1.16287 26.5187 1.20716 26.4898 1.25146L26.461 1.29314C26.4295 1.34265 26.4006 1.39476 26.3718 1.44687V1.4599L17.1395 19.4302C16.9778 19.6753 16.87 19.9516 16.8231 20.2409C16.7762 20.5302 16.7912 20.8261 16.8672 21.1092C16.9432 21.3924 17.0785 21.6565 17.2642 21.8842C17.4499 22.1119 17.6819 22.2982 17.945 22.4309C18.2081 22.5635 18.4964 22.6396 18.7911 22.6541C19.0858 22.6687 19.3803 22.6213 19.6554 22.5152C19.9304 22.4091 20.1798 22.2465 20.3873 22.0382C20.5948 21.8299 20.7558 21.5805 20.8597 21.3062L22.321 18.4401H34.1008L35.5647 21.3062C35.6842 21.5561 35.8529 21.7797 36.0609 21.9638C36.2689 22.148 36.5119 22.2888 36.7756 22.3781C37.0392 22.4674 37.3183 22.5034 37.5962 22.4838C37.8741 22.4643 38.1452 22.3896 38.3936 22.2643C38.642 22.1389 38.8625 21.9655 39.0423 21.7541C39.2221 21.5427 39.3573 21.2977 39.4402 21.0335C39.523 20.7693 39.5517 20.4913 39.5246 20.216C39.4975 19.9406 39.4151 19.6734 39.2823 19.4302L30.0867 1.45208ZM30.1602 1.61883C30.1612 1.60844 30.1612 1.59797 30.1602 1.58757L30.1444 1.54848C30.1418 1.55891 30.1654 1.58236 30.1654 1.60581L30.1602 1.61883ZM24.4408 14.326L28.2161 6.92368L32.0019 14.3129L24.4408 14.326Z" fill="#F25625"/>
<path d="M93.1438 0.284181C92.8698 0.283838 92.5985 0.337183 92.3452 0.441158C92.092 0.545134 91.862 0.697697 91.6682 0.890112C91.4745 1.08253 91.3209 1.31101 91.2162 1.56248C91.1115 1.81395 91.0578 2.08346 91.0581 2.35557V20.378C91.0581 20.65 91.1121 20.9194 91.2169 21.1707C91.3217 21.422 91.4753 21.6503 91.669 21.8427C91.8627 22.035 92.0926 22.1876 92.3457 22.2917C92.5987 22.3958 92.8699 22.4494 93.1438 22.4494C93.4177 22.4494 93.689 22.3958 93.942 22.2917C94.1951 22.1876 94.425 22.035 94.6187 21.8427C94.8123 21.6503 94.966 21.422 95.0708 21.1707C95.1756 20.9194 95.2296 20.65 95.2296 20.378V2.35557C95.2261 1.80726 95.0053 1.28238 94.6149 0.894652C94.2245 0.506929 93.6959 0.287598 93.1438 0.284181V0.284181Z" fill="#F25625"/>
<path d="M114.906 0.284512H99.6896C99.396 0.251765 99.0988 0.280923 98.8174 0.370081C98.536 0.45924 98.2767 0.606389 98.0565 0.801907C97.8362 0.997426 97.6601 1.23691 97.5394 1.50469C97.4188 1.77248 97.3564 2.06254 97.3564 2.3559C97.3564 2.64926 97.4188 2.93932 97.5394 3.20711C97.6601 3.4749 97.8362 3.71438 98.0565 3.9099C98.2767 4.10542 98.536 4.25257 98.8174 4.34172C99.0988 4.43088 99.396 4.46004 99.6896 4.42729H105.215V20.3783C105.215 20.9277 105.435 21.4545 105.826 21.843C106.217 22.2315 106.747 22.4497 107.301 22.4497C107.854 22.4497 108.384 22.2315 108.775 21.843C109.166 21.4545 109.386 20.9277 109.386 20.3783V4.42729H114.906C115.459 4.42729 115.99 4.20906 116.381 3.82059C116.772 3.43213 116.992 2.90527 116.992 2.3559C116.992 1.80654 116.772 1.27967 116.381 0.891206C115.99 0.502745 115.459 0.284512 114.906 0.284512V0.284512Z" fill="#F25625"/>
<path d="M85.9215 14.6742C85.92 14.2393 86.0423 13.8128 86.2744 13.4439C86.5065 13.0751 86.839 12.779 87.2333 12.5898C86.7689 11.6595 86.0979 10.8461 85.2709 10.2109C85.9385 9.25999 86.3307 8.14537 86.4047 6.98841C86.4787 5.83146 86.2318 4.67651 85.6907 3.6493C85.1495 2.62209 84.3351 1.76198 83.3359 1.16261C82.3367 0.563249 81.1911 0.247595 80.0238 0.250014C79.9166 0.249953 79.8097 0.25779 79.7037 0.273463H70.9856C70.4335 0.276879 69.905 0.496214 69.5146 0.883937C69.1242 1.27166 68.9033 1.79654 68.8999 2.34485V10.8701C68.8999 11.416 69.1183 11.9396 69.507 12.3256C69.8956 12.7116 70.4228 12.9285 70.9725 12.9285H80.9971C81.6787 12.9203 82.3391 13.1635 82.8505 13.6112C83.3618 14.0588 83.6877 14.679 83.765 15.3516C83.8011 15.7241 83.7586 16.1001 83.6399 16.4553C83.5213 16.8105 83.3292 17.1372 83.076 17.4144C82.8229 17.6916 82.5141 17.9132 82.1697 18.065C81.8252 18.2168 81.4527 18.2954 81.0758 18.2959H73.192C73.5437 17.9175 73.9807 17.6274 74.4671 17.4491C74.7917 17.3374 75.0738 17.1292 75.2751 16.8528C75.4765 16.5764 75.5873 16.2451 75.5926 15.904V15.7868C75.594 15.5263 75.5328 15.2693 75.4142 15.037C75.2957 14.8047 75.123 14.6039 74.9107 14.451C74.6984 14.2982 74.4524 14.1979 74.1932 14.1583C73.934 14.1187 73.669 14.141 73.4203 14.2234C73.3048 14.2625 73.1868 14.3068 73.074 14.3537C71.8544 14.8471 70.8085 15.6867 70.067 16.7674C69.3255 17.8482 68.9214 19.1221 68.9051 20.4298C68.9051 20.4558 68.9051 20.4819 68.9051 20.5054C68.9434 21.0284 69.1788 21.518 69.5645 21.8763C69.9501 22.2346 70.4575 22.4354 70.9856 22.4386H80.9289C82.5406 22.4471 84.106 21.9033 85.361 20.899C86.6161 19.8946 87.4839 18.4912 87.8184 16.9254C87.2879 16.8278 86.8083 16.5496 86.4621 16.1387C86.1159 15.7279 85.9247 15.21 85.9215 14.6742V14.6742ZM80.0369 8.79613H73.0714V4.42667H80.0369C80.1138 4.43063 80.1909 4.43063 80.2678 4.42667C80.8345 4.48153 81.358 4.75133 81.7294 5.17991C82.1009 5.60849 82.2916 6.16283 82.2618 6.72752C82.2321 7.29221 81.9842 7.82376 81.5697 8.21151C81.1553 8.59925 80.6063 8.81333 80.0369 8.80916V8.79613Z" fill="#F25625"/>
<path d="M88.238 13.1523C87.9963 13.1535 87.7583 13.2106 87.5428 13.3191C87.2094 13.4885 86.9502 13.7735 86.8143 14.12C86.6783 14.4666 86.6752 14.8506 86.8053 15.1993C86.9355 15.548 87.1899 15.8372 87.5204 16.0121C87.8509 16.1869 88.2346 16.2352 88.5986 16.1479C88.9626 16.0606 89.2817 15.8437 89.4954 15.5384C89.7091 15.233 89.8027 14.8603 89.7582 14.4911C89.7138 14.1218 89.5344 13.7815 89.2543 13.5348C88.9741 13.2881 88.6125 13.152 88.238 13.1523V13.1523Z" fill="#F25625"/>
</g>
<defs>
<clipPath id="clip0_714:7248">
<rect width="117" height="30" fill="white"/>
</clipPath>
</defs>
</svg>
